<svg width="86" height="86" viewBox="0 0 86 86" fill="none" xmlns="http://www.w3.org/2000/svg">
<circle cx="43" cy="43" r="43" fill="url(#paint0_radial_0_1)"/>
<path d="M23.0005 28.6066C23.191 27.8263 23.4324 27.0685 23.9473 26.43C24.7888 25.3866 25.8634 24.7808 27.2072 24.6966C27.8903 24.6535 28.0795 24.8375 28.0804 25.5176C28.0828 27.1625 28.0921 28.8075 28.073 30.4524C28.0688 30.8203 28.1377 30.9472 28.5427 30.9462C34.1785 30.9308 39.8139 30.9336 45.4498 30.942C45.7424 30.942 45.9428 30.8484 46.1446 30.6443C48.4362 28.33 50.7353 26.0232 53.0334 23.7154C53.9816 22.7628 54.9345 22.7619 55.8805 23.7103C56.3837 24.2144 56.8902 24.7158 57.3874 25.226C58.187 26.0466 58.1898 27.0469 57.386 27.867C56.4955 28.7761 55.593 29.6725 54.6964 30.575C54.6084 30.664 54.524 30.7566 54.4192 30.8671C54.5585 30.9701 54.6997 30.9331 54.8283 30.9331C56.0086 30.9364 57.1894 30.9345 58.3697 30.935C59.1776 30.935 59.3128 31.074 59.3128 31.9016C59.3128 35.4849 59.3128 39.0678 59.3128 42.6511C59.3128 42.8005 59.3128 42.9493 59.3128 43.0986C59.3412 43.116 59.3692 43.1333 59.3976 43.1501C59.8183 42.7199 60.2391 42.2898 60.6599 41.86C60.7489 41.7692 60.8397 41.6803 60.9287 41.589C61.1286 41.384 61.3546 41.2595 61.644 41.384C61.9301 41.5071 62 41.751 62 42.0407C61.9977 44.7314 61.9986 47.4216 61.9986 50.1122C61.9986 53.7845 61.9986 57.4567 61.9986 61.1295C61.9986 61.9098 61.8602 62.0526 61.1011 62.0526C54.8181 62.0526 48.535 62.0526 42.2519 62.0521C42.1 62.0521 41.942 62.0643 41.7971 62.0287C41.3651 61.9234 41.2319 61.4127 41.5562 61.0588C41.9085 60.6745 42.2882 60.3155 42.6559 59.9461C43.3543 59.2444 44.0533 58.5427 44.8301 57.7629H44.3045C38.7068 57.7629 33.1091 57.7605 27.5115 57.7643C25.7119 57.7657 24.3755 56.9858 23.4958 55.4102C23.2251 54.9257 23.1351 54.3841 23 53.8566V28.6052L23.0005 28.6066ZM43.3441 60.9048C43.5794 60.9048 43.7183 60.9048 43.8571 60.9048C46.2946 60.9048 48.7316 60.9048 51.1691 60.9048C54.2794 60.9048 57.3893 60.901 60.4991 60.9109C60.775 60.9118 60.8793 60.8547 60.8626 60.557C60.836 60.0865 60.8649 59.6133 60.8523 59.1419C60.8439 58.8278 60.9898 58.4304 60.7871 58.2221C60.5988 58.0288 60.2074 58.1832 59.9064 58.1598C59.8938 58.1589 59.8808 58.1598 59.8682 58.1589C59.4833 58.1383 59.2634 57.9515 59.2447 57.629C59.2247 57.285 59.4386 57.0495 59.8305 57.0177C60.083 56.9971 60.3384 57.0022 60.5914 57.0125C60.7796 57.0205 60.8668 56.9695 60.8593 56.7588C60.8453 56.3492 60.8481 55.9387 60.8584 55.5286C60.863 55.3451 60.7969 55.2815 60.617 55.2862C60.3384 55.2932 60.0574 55.2983 59.7806 55.2712C59.4484 55.2389 59.2438 55.0516 59.2447 54.6959C59.2452 54.3771 59.4498 54.1721 59.8053 54.1468C60.0453 54.1299 60.288 54.1281 60.5285 54.1407C60.7582 54.1529 60.8789 54.1037 60.8616 53.8304C60.8379 53.4493 60.8453 53.065 60.8598 52.683C60.8677 52.4724 60.8109 52.3839 60.5867 52.398C60.3216 52.4148 60.0527 52.4143 59.7876 52.3937C59.4507 52.3671 59.2396 52.1311 59.2419 51.8213C59.2438 51.51 59.4577 51.2815 59.7964 51.26C60.062 51.2427 60.33 51.2441 60.5956 51.2567C60.7899 51.2661 60.8668 51.2071 60.8593 51.0007C60.8453 50.593 60.8435 50.1843 60.8598 49.7766C60.8691 49.5416 60.7638 49.4985 60.5648 49.5079C60.3244 49.5191 60.0821 49.5177 59.8416 49.5065C59.4661 49.4892 59.2489 49.2823 59.2433 48.9537C59.2377 48.6255 59.446 48.4022 59.8183 48.3685C60.0453 48.3484 60.2769 48.3423 60.5028 48.3653C60.788 48.3943 60.8658 48.296 60.8626 48.0076C60.8472 46.5542 60.857 45.1002 60.8523 43.6463C60.8523 43.5583 60.9101 43.4441 60.7382 43.3481C60.6576 43.4478 60.5783 43.5653 60.48 43.6641C57.3045 46.8584 54.127 50.0509 50.9496 53.2429C50.5917 53.6024 50.2446 53.6623 49.9911 53.4151C49.7129 53.1441 49.7642 52.8108 50.1453 52.4232C50.2078 52.3596 50.2712 52.2969 50.3336 52.2337C52.8559 49.6998 55.3768 47.1646 57.9028 44.634C58.0719 44.4646 58.1749 44.3021 58.1744 44.0423C58.1656 40.1913 58.1646 36.3397 58.1744 32.4886C58.1753 32.1708 58.0863 32.0767 57.7695 32.0804C56.3735 32.0959 54.977 32.0935 53.5805 32.0818C53.3055 32.0795 53.1103 32.1577 52.9132 32.3561C49.6966 35.5992 46.4293 38.793 43.27 42.0913C41.976 43.4418 40.5958 44.5086 38.759 44.9238C38.4743 44.9884 38.205 45.1236 37.9286 45.2262C37.9347 45.2477 37.9408 45.2692 37.9468 45.2908C38.5418 45.2908 39.1369 45.2908 39.7315 45.2908C42.791 45.2908 45.8501 45.2898 48.9096 45.2922C49.3816 45.2922 49.6556 45.5169 49.6486 45.8778C49.6416 46.2265 49.3784 46.439 48.9287 46.439C43.7495 46.4404 38.5703 46.4404 33.3911 46.439C32.933 46.439 32.6805 46.2382 32.6702 45.8857C32.6595 45.514 32.92 45.2968 33.3938 45.2922C33.8379 45.2875 34.2838 45.2702 34.7265 45.2983C35.0303 45.3174 35.1659 45.2196 35.2661 44.9242C35.8136 43.3098 36.3854 41.7037 36.9524 40.0962C37.0028 39.9539 37.048 39.7901 37.1481 39.688C38.047 38.7701 38.9477 37.8531 39.8699 36.959C40.1872 36.6515 40.6583 36.8012 40.7887 37.2048C40.8815 37.4922 40.7333 37.6939 40.5464 37.8816C39.8913 38.5398 39.2427 39.2054 38.5763 39.8519C38.403 40.0204 38.417 40.107 38.5801 40.2666C39.3247 40.9973 40.0618 41.7355 40.7887 42.4845C40.9583 42.6591 41.0492 42.667 41.2272 42.4878C45.0276 38.6587 48.8336 34.8357 52.6443 31.0169C52.8144 30.8465 52.8354 30.7543 52.6513 30.575C51.9309 29.8743 51.2194 29.1637 50.5251 28.4372C50.3056 28.2078 50.1933 28.1741 49.9454 28.4255C47.4977 30.9078 45.0342 33.3743 42.5729 35.844C42.4569 35.9605 42.3399 36.0869 42.1997 36.166C41.8227 36.3781 41.3493 36.0785 41.3726 35.6521C41.3847 35.4335 41.5194 35.2804 41.6662 35.1334C42.5114 34.2871 43.3525 33.437 44.1996 32.5925C44.3389 32.4535 44.4992 32.3355 44.6586 32.2007C44.4792 32.0547 44.3613 32.0903 44.2527 32.0903C38.9971 32.0884 33.7419 32.0921 28.4863 32.08C28.1359 32.079 28.0725 32.1909 28.0734 32.5139C28.0846 35.9573 28.0809 39.4002 28.0786 42.8435C28.0786 43.0078 28.0739 43.1768 28.0371 43.336C27.9667 43.6402 27.7543 43.7839 27.4486 43.7577C27.1592 43.7329 26.9877 43.5597 26.9523 43.2695C26.9337 43.1183 26.9356 42.9643 26.9351 42.8117C26.9342 37.3152 26.9346 31.8192 26.9342 26.3228C26.9342 25.8664 26.9328 25.8664 26.4957 25.9932C25.0703 26.4066 24.1444 27.7463 24.1439 29.4108C24.1425 36.3355 24.143 43.2601 24.1453 50.1848C24.1453 50.292 24.1057 50.4095 24.2045 50.5396C24.8667 49.8721 25.6327 49.3899 26.5535 49.2181C26.8512 49.1624 26.9467 49.0552 26.9416 48.7514C26.9239 47.7062 26.93 46.66 26.9379 45.6147C26.9411 45.1878 27.1606 44.9373 27.498 44.935C27.8297 44.9322 28.0725 45.1892 28.0758 45.6067C28.0856 46.9329 28.0874 48.2595 28.0744 49.5856C28.0702 50.0298 27.8558 50.2278 27.4076 50.2517C27.1653 50.2643 26.9272 50.292 26.6928 50.3495C24.7614 50.8265 23.3802 53.1287 24.6514 55.1279C25.3182 56.177 26.3074 56.617 27.5217 56.6165C32.9931 56.6146 38.464 56.6165 43.9354 56.6151C44.6078 56.6151 45.358 56.7944 45.9316 56.5528C46.5183 56.3057 46.9325 55.6443 47.4204 55.1626C47.7191 54.8677 48.0033 54.5569 48.3169 54.2788C48.5541 54.0686 48.8327 54.0686 49.0783 54.2811C49.3155 54.4862 49.3257 54.7989 49.1156 55.0718C49.0382 55.1719 48.9436 55.259 48.8542 55.3493C47.131 57.0809 45.4074 58.8124 43.6847 60.5439C43.5892 60.6398 43.4983 60.741 43.3436 60.9053L43.3441 60.9048ZM54.4406 24.1681C54.2999 24.1536 54.1606 24.2252 54.0506 24.3305C53.703 24.6643 53.3689 25.0121 53.0232 25.3472C52.9015 25.4652 52.9626 25.5368 53.0525 25.6267C53.8237 26.3986 54.5953 27.17 55.36 27.948C55.4863 28.0763 55.5683 28.0861 55.6955 27.9508C55.9909 27.6367 56.3068 27.3418 56.6022 27.0282C56.9168 26.6944 56.9191 26.3916 56.5967 26.0588C56.0496 25.4933 55.4904 24.9405 54.9331 24.3853C54.805 24.258 54.6554 24.1634 54.4402 24.1681H54.4406ZM53.6569 29.959C53.7072 29.9197 53.7589 29.8874 53.8013 29.8452C54.0632 29.5859 54.3185 29.32 54.5851 29.0654C54.6946 28.9605 54.6876 28.8884 54.5837 28.785C53.8009 28.0042 53.0199 27.2211 52.2441 26.4332C52.1252 26.3129 52.0498 26.3181 51.9375 26.437C51.7026 26.687 51.4622 26.9332 51.2096 27.1644C51.0586 27.3025 51.0791 27.39 51.2157 27.5253C51.9836 28.2855 52.7422 29.0546 53.5045 29.82C53.5492 29.8649 53.5977 29.9052 53.6569 29.959ZM37.7968 41.2052C37.1165 42.6741 37.1183 42.6881 38.1257 43.6599C38.1532 43.6866 38.1817 43.7118 38.2068 43.7409C38.2828 43.8289 38.368 43.8448 38.4789 43.8041C38.9538 43.6295 39.4309 43.4609 39.8782 43.3004C39.1853 42.6029 38.498 41.9111 37.7968 41.2052Z" fill="white"/>
<path d="M54.1562 57.986C53.1786 57.986 52.2015 57.9827 51.2239 57.9879C50.9261 57.9897 50.6522 57.9415 50.5222 57.641C50.3861 57.326 50.5385 57.084 50.7621 56.8602C52.7579 54.8614 54.7499 52.8593 56.7405 50.8554C56.9604 50.634 57.1934 50.4687 57.514 50.6054C57.8183 50.7351 57.8695 51.0094 57.869 51.3057C57.8681 53.2694 57.8709 55.2331 57.8672 57.1968C57.8663 57.7814 57.6636 57.9822 57.0886 57.9841C56.111 57.9874 55.1338 57.9851 54.1562 57.9851V57.986ZM52.5398 56.8087C52.5458 56.8115 52.5664 56.8316 52.5869 56.8316C53.8818 56.8345 55.1767 56.8288 56.4711 56.8415C56.7614 56.8443 56.7237 56.6683 56.7237 56.4909C56.7237 55.2794 56.7246 54.068 56.7218 52.856C56.7218 52.7751 56.7633 52.6758 56.6943 52.6342C55.3076 54.0277 53.9284 55.4138 52.5403 56.8087H52.5398Z" fill="white"/>
<defs>
<radialGradient id="paint0_radial_0_1" cx="0" cy="0" r="1" gradientUnits="userSpaceOnUse" gradientTransform="translate(43 43) rotate(90) scale(43)">
<stop offset="0.59" stop-color="#BBAAFF"/>
<stop offset="1" stop-color="#97A0EF"/>
</radialGradient>
</defs>
</svg>
