<svg width="1377" height="690" viewBox="0 0 1377 690" fill="none" xmlns="http://www.w3.org/2000/svg">
<g filter="url(#filter0_i_0_1)">
<circle cx="41" cy="41" r="41" fill="#DAD7FF"/>
</g>
<g filter="url(#filter1_i_0_1)">
<circle cx="1084" cy="41" r="41" fill="#DAD7FF"/>
</g>
<path d="M38.9117 32.0671L34.5134 34.0574L32.5476 29.2167C35.4635 27.9718 37.3801 27.1691 38.2975 26.8087L40.8283 26.4155H46.0376V56H38.9117V32.0671Z" fill="#29186D"/>
<path d="M1088.67 50.5696C1088.67 47.1296 1086.07 45.2457 1080.86 44.9181V39.7826C1084.26 39.7826 1086.47 38.9799 1087.49 37.3746C1087.88 36.7521 1088.09 35.9985 1088.1 35.114C1088.1 32.5585 1086.32 31.2808 1082.75 31.2808C1081.37 31.2808 1079.93 31.5511 1078.42 32.0916C1076.92 32.6158 1075.94 32.9353 1075.5 33.0499L1073.34 28.2339C1076.48 26.6776 1079.51 25.8995 1082.43 25.8995C1085.93 25.9159 1088.77 26.5957 1090.93 27.939C1093.26 29.3969 1094.42 31.7722 1094.42 35.0648C1094.42 36.9814 1093.86 38.6032 1092.75 39.93C1091.65 41.2569 1090.25 42.0596 1088.55 42.3381C1090.51 42.8295 1092.13 43.8042 1093.41 45.2621C1094.71 46.7037 1095.35 48.3991 1095.35 50.3485C1095.35 52.2815 1095.03 53.8868 1094.4 55.1646C1093.76 56.4423 1092.86 57.4743 1091.72 58.2606C1089.41 59.8168 1086.41 60.5949 1082.72 60.5949C1079.05 60.6113 1075.89 59.9561 1073.24 58.6292L1075.03 53.5182C1077.46 54.7305 1079.83 55.3366 1082.16 55.3366C1084.5 55.3366 1086.17 54.968 1087.17 54.2308C1088.17 53.4937 1088.67 52.2733 1088.67 50.5696Z" fill="#29186D"/>
<path d="M95 40.2688C287 -0.000104904 346.561 18.6915 565.5 40.2688C786 61.9999 962.5 40.2688 1036 40.2688" stroke="#DAD7FF" stroke-width="4" stroke-dasharray="15 15"/>
<path d="M1127 28.9988C1227.5 -2.00089 1375 38.0019 1375 316C1375 640.084 1189.5 670.332 1117 650.998C1061.83 638.998 927.7 615.298 832.5 616.498C737.3 617.698 612.833 639.998 562.5 650.998C524.333 658.832 418.1 674.498 298.5 674.498C178.9 674.498 78 658.832 42.5 650.998" stroke="#DAD7FF" stroke-width="4" stroke-dasharray="15 15"/>
<g filter="url(#filter2_i_0_1)">
<circle cx="564" cy="41" r="41" fill="#DAD7FF"/>
</g>
<path d="M553.197 28.9464C556.44 27.079 559.848 26.1453 563.419 26.1453C567.956 26.1289 571.175 27.4148 573.076 30.003C574.091 31.3791 574.591 33.0581 574.574 35.0402C574.574 37.8414 573.616 40.3068 571.7 42.4364C570.782 43.452 569.906 44.312 569.07 45.0164C568.235 45.7044 567.784 46.0812 567.719 46.1467C567.653 46.1958 567.588 46.245 567.522 46.2941L562.583 50.4468H574.083V56H553.05V51.2576L563.493 42.5347C565.376 40.9621 566.548 39.7826 567.006 38.9963C567.612 37.9643 567.915 36.8831 567.915 35.7528C567.915 32.9025 566.228 31.4773 562.854 31.4773C560.609 31.4773 558.029 32.2227 555.114 33.7134L553.197 28.9464Z" fill="#29186D"/>
<g filter="url(#filter3_i_0_1)">
<circle cx="1084" cy="649" r="41" fill="#DAD7FF"/>
</g>
<g filter="url(#filter4_i_0_1)">
<circle cx="564" cy="649" r="41" fill="#DAD7FF"/>
</g>
<g filter="url(#filter5_i_0_1)">
<circle cx="41" cy="649" r="41" fill="#DAD7FF"/>
</g>
<path d="M1087.02 657.218V643.728L1077.93 657.218H1087.02ZM1093.07 635.03V657.144H1097.61V662.427H1093.07V669.848H1087.02V662.427H1071.96L1071.05 658.029L1087.64 633.629L1093.07 635.03Z" fill="#29186D"/>
<path d="M564.665 645.891C568.268 645.891 571.086 646.906 573.117 648.937C575.149 650.969 576.164 653.786 576.164 657.39C576.164 660.978 575.026 663.779 572.749 665.794C570.472 667.809 567.539 668.816 563.952 668.816C560.381 668.816 556.941 668.046 553.632 666.506L554.762 661.248C557.498 662.575 560.381 663.238 563.411 663.238C567.769 663.238 569.948 661.281 569.948 657.366C569.948 653.074 567.957 650.928 563.977 650.928C562.027 650.928 559.881 651.632 557.539 653.041L554.443 650.387V634.76H574.026V639.969H560.143V647.267C561.405 646.349 562.912 645.891 564.665 645.891Z" fill="#29186D"/>
<path d="M42.8194 642.942C46.3905 642.942 49.2818 644.04 51.4933 646.235C53.7211 648.413 54.8351 651.337 54.8351 655.007C54.8351 658.66 53.7048 661.584 51.4442 663.779C49.1835 665.958 46.0384 667.047 42.0086 667.047C37.9952 667.047 34.8172 665.769 32.4747 663.214C30.1322 660.658 28.9609 657.218 28.9609 652.894C28.9773 645.588 31.541 639.862 36.6519 635.718C39.6497 633.293 43.3436 631.524 47.7338 630.41L49.3801 635.841C45.4978 636.66 42.4345 638.134 40.1903 640.264C38.9781 641.41 38.0525 642.737 37.4136 644.244C39.2975 643.376 41.0994 642.942 42.8194 642.942ZM42.2789 661.715C44.3429 661.715 45.8664 661.027 46.8492 659.651C47.8321 658.258 48.3235 656.514 48.3235 654.417C48.3235 650.223 46.4561 648.118 42.7212 648.102C39.9036 648.102 37.5693 649.028 35.7182 650.879C35.6854 651.354 35.6691 652.099 35.6691 653.115C35.751 658.848 37.9542 661.715 42.2789 661.715Z" fill="#29186D"/>
<defs>
<filter id="filter0_i_0_1" x="0" y="0" width="82" height="82" filterUnits="userSpaceOnUse" color-interpolation-filters="sRGB">
<feFlood flood-opacity="0" result="BackgroundImageFix"/>
<feBlend mode="normal" in="SourceGraphic" in2="BackgroundImageFix" result="shape"/>
<feColorMatrix in="SourceAlpha" type="matrix" values="0 0 0 0 0 0 0 0 0 0 0 0 0 0 0 0 0 0 127 0" result="hardAlpha"/>
<feOffset/>
<feGaussianBlur stdDeviation="5.95"/>
<feComposite in2="hardAlpha" operator="arithmetic" k2="-1" k3="1"/>
<feColorMatrix type="matrix" values="0 0 0 0 0.297732 0 0 0 0 0.218681 0 0 0 0 0.783333 0 0 0 0.25 0"/>
<feBlend mode="normal" in2="shape" result="effect1_innerShadow_0_1"/>
</filter>
<filter id="filter1_i_0_1" x="1043" y="0" width="82" height="82" filterUnits="userSpaceOnUse" color-interpolation-filters="sRGB">
<feFlood flood-opacity="0" result="BackgroundImageFix"/>
<feBlend mode="normal" in="SourceGraphic" in2="BackgroundImageFix" result="shape"/>
<feColorMatrix in="SourceAlpha" type="matrix" values="0 0 0 0 0 0 0 0 0 0 0 0 0 0 0 0 0 0 127 0" result="hardAlpha"/>
<feOffset/>
<feGaussianBlur stdDeviation="5.95"/>
<feComposite in2="hardAlpha" operator="arithmetic" k2="-1" k3="1"/>
<feColorMatrix type="matrix" values="0 0 0 0 0.297732 0 0 0 0 0.218681 0 0 0 0 0.783333 0 0 0 0.25 0"/>
<feBlend mode="normal" in2="shape" result="effect1_innerShadow_0_1"/>
</filter>
<filter id="filter2_i_0_1" x="523" y="0" width="82" height="82" filterUnits="userSpaceOnUse" color-interpolation-filters="sRGB">
<feFlood flood-opacity="0" result="BackgroundImageFix"/>
<feBlend mode="normal" in="SourceGraphic" in2="BackgroundImageFix" result="shape"/>
<feColorMatrix in="SourceAlpha" type="matrix" values="0 0 0 0 0 0 0 0 0 0 0 0 0 0 0 0 0 0 127 0" result="hardAlpha"/>
<feOffset/>
<feGaussianBlur stdDeviation="5.95"/>
<feComposite in2="hardAlpha" operator="arithmetic" k2="-1" k3="1"/>
<feColorMatrix type="matrix" values="0 0 0 0 0.297732 0 0 0 0 0.218681 0 0 0 0 0.783333 0 0 0 0.25 0"/>
<feBlend mode="normal" in2="shape" result="effect1_innerShadow_0_1"/>
</filter>
<filter id="filter3_i_0_1" x="1043" y="608" width="82" height="82" filterUnits="userSpaceOnUse" color-interpolation-filters="sRGB">
<feFlood flood-opacity="0" result="BackgroundImageFix"/>
<feBlend mode="normal" in="SourceGraphic" in2="BackgroundImageFix" result="shape"/>
<feColorMatrix in="SourceAlpha" type="matrix" values="0 0 0 0 0 0 0 0 0 0 0 0 0 0 0 0 0 0 127 0" result="hardAlpha"/>
<feOffset/>
<feGaussianBlur stdDeviation="5.95"/>
<feComposite in2="hardAlpha" operator="arithmetic" k2="-1" k3="1"/>
<feColorMatrix type="matrix" values="0 0 0 0 0.297732 0 0 0 0 0.218681 0 0 0 0 0.783333 0 0 0 0.25 0"/>
<feBlend mode="normal" in2="shape" result="effect1_innerShadow_0_1"/>
</filter>
<filter id="filter4_i_0_1" x="523" y="608" width="82" height="82" filterUnits="userSpaceOnUse" color-interpolation-filters="sRGB">
<feFlood flood-opacity="0" result="BackgroundImageFix"/>
<feBlend mode="normal" in="SourceGraphic" in2="BackgroundImageFix" result="shape"/>
<feColorMatrix in="SourceAlpha" type="matrix" values="0 0 0 0 0 0 0 0 0 0 0 0 0 0 0 0 0 0 127 0" result="hardAlpha"/>
<feOffset/>
<feGaussianBlur stdDeviation="5.95"/>
<feComposite in2="hardAlpha" operator="arithmetic" k2="-1" k3="1"/>
<feColorMatrix type="matrix" values="0 0 0 0 0.297732 0 0 0 0 0.218681 0 0 0 0 0.783333 0 0 0 0.25 0"/>
<feBlend mode="normal" in2="shape" result="effect1_innerShadow_0_1"/>
</filter>
<filter id="filter5_i_0_1" x="0" y="608" width="82" height="82" filterUnits="userSpaceOnUse" color-interpolation-filters="sRGB">
<feFlood flood-opacity="0" result="BackgroundImageFix"/>
<feBlend mode="normal" in="SourceGraphic" in2="BackgroundImageFix" result="shape"/>
<feColorMatrix in="SourceAlpha" type="matrix" values="0 0 0 0 0 0 0 0 0 0 0 0 0 0 0 0 0 0 127 0" result="hardAlpha"/>
<feOffset/>
<feGaussianBlur stdDeviation="5.95"/>
<feComposite in2="hardAlpha" operator="arithmetic" k2="-1" k3="1"/>
<feColorMatrix type="matrix" values="0 0 0 0 0.297732 0 0 0 0 0.218681 0 0 0 0 0.783333 0 0 0 0.25 0"/>
<feBlend mode="normal" in2="shape" result="effect1_innerShadow_0_1"/>
</filter>
</defs>
</svg>
