<svg width="86" height="86" viewBox="0 0 86 86" fill="none" xmlns="http://www.w3.org/2000/svg">
<circle cx="43" cy="43" r="43" fill="url(#paint0_radial_0_1)"/>
<path d="M22 61.699C22 52.9669 22 44.2347 22 35.5026C22.1271 35.3897 22.2453 35.2641 22.3829 35.1655C24.2184 33.856 26.0528 32.5455 27.8983 31.2513C28.1294 31.0893 28.1945 30.9168 28.1919 30.6519C28.1809 29.467 28.1861 28.2815 28.1872 27.0965C28.1882 25.9865 28.7076 25.4583 29.8042 25.4573C31.708 25.4557 33.6118 25.4504 35.5155 25.4626C35.8679 25.4647 36.1563 25.3818 36.443 25.1703C37.4472 24.4295 38.4697 23.7131 39.4822 22.9834C40.227 22.4463 41.0793 22.1889 41.9595 22C42.3886 22 42.8182 22 43.2473 22C43.3087 22.0232 43.3686 22.058 43.4316 22.067C44.3118 22.1926 45.1027 22.535 45.8233 23.052C46.8374 23.7796 47.8547 24.5029 48.8641 25.2368C49.0815 25.395 49.3021 25.462 49.571 25.4605C51.5021 25.452 53.4326 25.4552 55.3637 25.4562C56.5139 25.4568 57.0191 25.9712 57.0196 27.1387C57.0202 28.3374 57.0244 29.5366 57.0154 30.7353C57.0139 30.9453 57.0727 31.0777 57.2486 31.2017C59.091 32.5017 60.9238 33.8143 62.7677 35.1127C63.0692 35.3248 63.2136 35.5643 63.2136 35.9468C63.2052 44.3524 63.2079 52.7579 63.2068 61.1635C63.2068 62.5473 62.3544 63.3952 60.9664 63.3952C48.7239 63.3962 36.4819 63.3957 24.2394 63.3936C24.0398 63.3936 23.8355 63.3836 23.6412 63.3435C22.74 63.1562 22.26 62.5363 22 61.6979V61.699ZM42.6113 26.8364C38.4004 26.8364 34.1889 26.838 29.978 26.8332C29.7107 26.8332 29.5437 26.8311 29.5448 27.2015C29.5605 31.58 29.5584 35.959 29.5553 40.3374C29.5553 40.5411 29.6041 40.6846 29.768 40.8207C33.1648 43.648 36.5507 46.4881 39.9523 49.3096C41.5289 50.617 43.6075 50.618 45.2115 49.3481C45.6531 48.9983 46.0806 48.6295 46.5134 48.2681C49.4528 45.8149 52.3891 43.3579 55.3348 40.9125C55.5638 40.7226 55.6563 40.5358 55.6557 40.2351C55.6458 35.9236 55.6421 31.6121 55.6594 27.3012C55.661 26.8918 55.5334 26.8274 55.1647 26.8285C50.9806 26.8417 46.7959 26.8369 42.6118 26.8369L42.6113 26.8364ZM24.6301 61.9839H60.5588C60.4312 61.8683 60.354 61.7939 60.2721 61.7254C55.7356 57.9389 51.1964 54.1555 46.6683 50.359C46.4199 50.1506 46.2959 50.2403 46.1027 50.3943C43.9657 52.0937 41.2348 52.0947 39.1057 50.3912C38.8793 50.2102 38.747 50.1865 38.5065 50.3885C35.2467 53.1267 31.9753 55.8507 28.7066 58.5788C27.3668 59.6968 26.0281 60.8158 24.6301 61.9839ZM23.3833 61.2194C23.565 61.0727 23.6885 60.9762 23.8092 60.8754C28.3473 57.0868 32.8833 53.2961 37.4272 49.5148C37.6767 49.3075 37.6956 49.2167 37.4335 48.9983C32.8797 45.2087 28.3342 41.4079 23.7851 37.6124C23.6685 37.5153 23.5677 37.3819 23.3833 37.3455V61.2194ZM61.8235 37.299C61.6565 37.4299 61.5404 37.5153 61.4306 37.6077C59.8656 38.9187 58.3037 40.234 56.736 41.5419C53.7451 44.0379 50.7526 46.5318 47.7554 49.0194C47.5443 49.1946 47.497 49.279 47.7423 49.4827C52.3277 53.2966 56.9041 57.1211 61.4853 60.9403C61.5803 61.0195 61.6538 61.1524 61.824 61.1397V37.299H61.8235ZM57.0401 39.4395C57.1315 39.383 57.1798 39.3609 57.2192 39.3281C58.5395 38.2276 59.8551 37.1218 61.1817 36.0297C61.4012 35.8492 61.3104 35.7775 61.1418 35.6582C59.8498 34.7434 58.5616 33.8228 57.2712 32.9053C57.2092 32.861 57.153 32.7908 57.0401 32.8251V39.4395ZM28.1646 39.4727V32.747C26.6909 33.7958 25.2677 34.8093 23.8156 35.8429C25.2724 37.0585 26.6893 38.2413 28.1646 39.4727ZM46.6415 25.4314C45.8611 24.8316 45.1521 24.1505 44.2609 23.7405C43.5781 23.4266 42.8576 23.3353 42.1055 23.415C40.6376 23.5706 39.6818 24.6253 38.5684 25.4314H46.6415Z" fill="white"/>
<path d="M44.0119 40.6777C43.3056 41.3171 42.5062 41.7128 41.5693 41.8394C39.6834 42.0942 38.0973 40.8359 37.9366 38.935C37.7507 36.735 39.0652 34.3593 41.0247 33.3542C42.2415 32.7301 43.7625 32.9764 44.7435 33.9525C44.8359 34.0443 44.8942 34.1762 45.0607 34.2295C45.0959 34.0749 45.1306 33.9245 45.1636 33.7742C45.2687 33.2914 45.5701 33.0413 45.9625 33.112C46.3826 33.188 46.5984 33.5489 46.5081 34.0316C46.1578 35.9093 45.7991 37.7849 45.3333 39.6383C45.1889 40.2129 45.3585 40.4302 45.9588 40.4571C46.6615 40.4888 47.2518 40.2419 47.6998 39.7C48.9996 38.1278 49.2438 36.3425 48.5747 34.4648C47.9062 32.5881 46.5517 31.4037 44.5749 31.0597C40.7857 30.4002 36.8674 32.8952 35.8075 36.6015C34.9709 39.5265 36.6316 42.605 39.5405 43.476C41.6675 44.1128 43.8239 44.3149 46.0076 43.7672C47.4109 43.4153 48.6183 42.7332 49.5547 41.6062C49.7968 41.3145 50.0925 41.1926 50.4444 41.3572C50.7631 41.5065 50.8703 41.7882 50.8104 42.1322C50.781 42.2995 50.6691 42.4192 50.5646 42.5416C49.2895 44.0389 47.6467 44.8752 45.7435 45.2329C43.2982 45.6924 40.8897 45.474 38.5821 44.5934C34.7267 43.123 33.0855 38.5942 35.0613 34.8204C36.5465 31.983 38.8525 30.1238 42.0793 29.6521C45.5013 29.152 48.321 30.5385 49.6303 33.4307C50.7652 35.9373 50.5237 38.3637 48.7737 40.5568C48.1577 41.3287 47.3405 41.7555 46.3516 41.8326C45.3543 41.9101 44.5172 41.6495 44.0114 40.6787L44.0119 40.6777ZM41.1219 40.4957C41.7673 40.4614 42.3713 40.2857 42.856 39.8472C43.6706 39.1107 44.3459 38.3019 44.5229 37.1349C44.608 36.5741 44.556 36.1056 44.2824 35.6413C44.16 35.434 44.0245 35.2308 43.8712 35.0462C43.3355 34.4015 42.4406 34.2084 41.6869 34.5618C40.2306 35.2451 39.1178 37.2573 39.31 38.8607C39.4302 39.8641 40.1361 40.5009 41.1219 40.4951V40.4957Z" fill="white"/>
<defs>
<radialGradient id="paint0_radial_0_1" cx="0" cy="0" r="1" gradientUnits="userSpaceOnUse" gradientTransform="translate(43 43) rotate(90) scale(43)">
<stop offset="0.59" stop-color="#BBAAFF"/>
<stop offset="1" stop-color="#97A0EF"/>
</radialGradient>
</defs>
</svg>
