<svg width="86" height="86" viewBox="0 0 86 86" fill="none" xmlns="http://www.w3.org/2000/svg">
<circle cx="43" cy="43" r="43" fill="url(#paint0_radial_0_1)"/>
<path d="M55.8517 31.0596C54.6806 32.3151 53.5649 33.511 52.4177 34.7404C54.8553 37.7302 55.8824 41.2723 55.2252 45.237C54.6733 48.5655 53.003 51.2627 50.3435 53.3237C45.1705 57.3319 37.7459 56.7118 33.2201 51.9081C28.7056 47.1159 28.5536 39.6251 32.8502 34.6072C37.33 29.3749 45.6917 28.3893 51.3779 33.6014C52.4991 32.3988 53.6228 31.1929 54.77 29.9622C53.5948 28.8178 52.1778 27.7914 50.5901 27.0307C45.0245 24.3657 39.4942 24.4568 34.0179 27.32C33.9579 27.3514 33.8993 27.3869 33.8393 27.4184C33.2974 27.7036 32.9168 27.6414 32.6922 27.2302C32.4742 26.8318 32.6375 26.4702 33.1721 26.1669C40.3547 22.0944 49.4956 23.1511 55.5638 28.7542C55.6744 28.8567 55.7904 28.9531 55.9211 29.0669C56.9615 28.0478 57.9907 27.0528 58.9971 26.0357C59.1158 25.9152 59.1658 25.6674 59.1544 25.4846C59.0531 23.8642 58.9392 22.2438 58.8078 20.6254C58.7759 20.2343 58.8705 19.939 59.1518 19.6618C60.5002 18.3327 61.8259 16.9787 63.187 15.663C63.391 15.4655 63.7502 15.3175 64.0262 15.3349C64.4074 15.359 64.5154 15.734 64.5827 16.0935C64.8367 17.4528 65.126 18.8061 65.3619 20.1687C65.4233 20.5229 65.5732 20.6481 65.8978 20.7117C67.0989 20.9461 68.3014 21.1818 69.4905 21.469C69.7651 21.5353 70.1257 21.7684 70.1977 22.002C70.269 22.2331 70.1004 22.6361 69.9071 22.8364C68.616 24.1742 67.3009 25.4906 65.9631 26.7816C65.7598 26.9778 65.3946 27.1057 65.1086 27.097C63.6289 27.0541 62.1505 26.9671 60.6728 26.8713C60.3162 26.8486 60.0663 26.949 59.825 27.2101C58.8992 28.2112 57.954 29.1948 57.0122 30.1892C63.8902 37.9451 63.3656 49.959 55.8791 57.1122C56.7229 58.4046 57.5708 59.7009 58.4166 60.9992C58.9198 61.7719 58.8605 62.0224 58.0633 62.5132C56.8602 63.2544 55.6578 63.997 54.452 64.7342C53.8315 65.1132 53.5575 65.053 53.1303 64.4497C52.3604 63.3636 51.5952 62.2748 50.8267 61.1881C50.7201 61.0374 50.6081 60.8908 50.5541 60.8178C49.1437 61.2276 47.8113 61.703 46.4409 61.9969C42.571 62.8266 38.7937 62.4281 35.1437 60.9028C34.7318 60.7307 34.5612 60.8138 34.3325 61.1499C33.5747 62.2648 32.7875 63.3596 32.0063 64.4584C31.5811 65.057 31.2991 65.1126 30.6806 64.7322C29.4328 63.9655 28.1864 63.1975 26.9406 62.4275C26.3307 62.0505 26.2587 61.7284 26.654 61.1198C27.4439 59.9031 28.2277 58.6824 29.0376 57.4792C29.2348 57.1866 29.2428 57.0178 28.9789 56.752C25.5742 53.3217 23.7139 49.1755 23.3373 44.3511C23.296 43.8221 23.5553 43.4559 23.9925 43.4277C24.4011 43.4009 24.699 43.7076 24.7397 44.2205C25.091 48.668 26.78 52.5161 29.9094 55.6907C35.1037 60.9604 43.0022 62.4563 49.7609 59.4839C56.5203 56.5116 60.7721 49.5994 60.3975 42.1769C60.2002 38.2638 58.8612 34.7853 56.421 31.7326C56.263 31.5351 56.0944 31.3456 55.8511 31.059L55.8517 31.0596ZM50.1462 34.4732C45.8097 30.2769 38.2365 30.6612 34.0626 35.3785C29.7028 40.3067 30.2853 47.8035 35.3517 51.9671C40.3221 56.0516 47.8073 55.1537 51.6612 50.0299C55.5345 44.8801 54.0314 38.4935 51.1813 35.6417C50.0509 36.8403 48.9204 38.0382 47.782 39.2454C49.9389 42.3229 49.0817 46.1021 46.5669 48.1082C44.0014 50.1545 40.3254 49.9375 38.0105 47.6006C35.7063 45.2745 35.5216 41.5602 37.5686 38.9977C39.5495 36.5175 43.4848 35.5653 46.7662 38.1078C47.8819 36.9079 49.0044 35.7006 50.1462 34.4732ZM45.5784 39.066C43.8407 37.469 40.6567 37.7094 38.9023 39.6244C37.0007 41.6995 37.14 44.9323 39.2103 46.7978C41.2865 48.6686 44.4366 48.4986 46.3109 46.4168C48.1446 44.3806 47.7753 41.4256 46.4915 40.0938C45.6917 40.9603 44.9018 41.8321 44.0927 42.6852C43.6767 43.1237 43.2608 43.1612 42.9396 42.8392C42.613 42.5117 42.6736 42.1301 43.0989 41.6848C43.9234 40.8223 44.7405 39.9525 45.5784 39.066ZM60.5042 24.4112L60.7035 24.5632C61.1047 24.1039 61.49 23.6292 61.9113 23.1886C62.3225 22.7587 62.7531 22.7312 63.0637 23.0654C63.3563 23.3801 63.3037 23.7865 62.9091 24.1863C62.5051 24.5947 62.0952 24.9978 61.5906 25.5C62.8004 25.5643 63.8802 25.6312 64.9613 25.6661C65.0953 25.6701 65.2546 25.5181 65.3693 25.4049C66.0858 24.6998 66.793 23.9854 67.5022 23.2729C67.6995 23.0747 67.8934 22.8732 68.1347 22.6254C67.1716 22.4246 66.3091 22.2351 65.4432 22.067C64.2688 21.8387 64.2675 21.846 64.0282 20.6381C63.9982 20.4874 63.9695 20.3368 63.9395 20.1861C63.7622 19.2975 63.5849 18.4097 63.3743 17.3524C62.3092 18.4519 61.3467 19.4375 60.3969 20.4359C60.3056 20.5316 60.2449 20.7077 60.2529 20.841C60.3256 22.0315 60.4175 23.2214 60.5035 24.4112H60.5042ZM33.3427 60.114C32.3316 59.431 31.3511 58.7688 30.3293 58.0785C29.5988 59.1987 28.8616 60.329 28.1077 61.4854C29.1322 62.1134 30.0973 62.7054 31.0852 63.3107C31.8577 62.2166 32.6022 61.1626 33.3427 60.114ZM51.8039 60.1167C52.5471 61.1686 53.3016 62.2366 54.0648 63.3167C55.0732 62.694 56.039 62.098 57.0389 61.4813C56.279 60.3183 55.5465 59.1967 54.8199 58.0845C53.7995 58.7722 52.8143 59.4357 51.8039 60.1167Z" fill="white"/>
<path d="M26.1637 35.8457C26.0691 36.137 26.0171 36.2984 25.9638 36.4597C25.7638 37.057 25.5645 37.655 25.3619 38.2516C25.2279 38.646 24.9493 38.8515 24.5414 38.7591C24.1095 38.6607 23.8968 38.3293 24.0181 37.9088C24.2394 37.1414 24.5007 36.3834 24.7907 35.6388C24.9213 35.3034 25.2586 35.1393 25.5918 35.2993C25.8305 35.4138 25.9978 35.6797 26.1644 35.8457H26.1637Z" fill="white"/>
<path d="M30.0967 29.9777C29.9514 30.2267 29.8714 30.4162 29.7461 30.5682C29.3661 31.0276 28.9682 31.4709 28.5783 31.9215C28.235 32.3179 27.8464 32.3922 27.5138 32.1237C27.1892 31.8619 27.1606 31.4394 27.4872 31.0383C27.9058 30.5234 28.3257 30.0031 28.8063 29.5505C28.9749 29.3918 29.3528 29.3322 29.5828 29.4025C29.7881 29.4647 29.9207 29.7681 30.0967 29.9783V29.9777Z" fill="white"/>
<defs>
<radialGradient id="paint0_radial_0_1" cx="0" cy="0" r="1" gradientUnits="userSpaceOnUse" gradientTransform="translate(43 43) rotate(90) scale(43)">
<stop offset="0.59" stop-color="#BBAAFF"/>
<stop offset="1" stop-color="#97A0EF"/>
</radialGradient>
</defs>
</svg>
