<svg width="86" height="86" viewBox="0 0 86 86" fill="none" xmlns="http://www.w3.org/2000/svg">
<circle cx="43" cy="43" r="43" fill="url(#paint0_radial_0_1)"/>
<path d="M53.1901 32.0305C52.2222 32.0305 51.2999 32.032 50.3776 32.0305C49.1315 32.028 48.3955 31.2906 48.3936 30.0437C48.3921 29.1167 48.3936 28.1896 48.3936 27.2115H47.9764C41.9915 27.2115 36.0066 27.2115 30.0222 27.2115C29.3782 27.2115 29.2002 27.3889 29.2002 28.0359C29.2002 38.7277 29.2002 49.4194 29.2002 60.1112C29.2002 60.7641 29.3762 60.9444 30.0144 60.9444C37.4738 60.9444 44.9326 60.9444 52.392 60.9444C53.0072 60.9444 53.1896 60.7578 53.1905 60.1324C53.192 59.2412 53.1886 58.3505 53.192 57.4593C53.1935 56.9813 53.415 56.7238 53.8048 56.7327C54.1809 56.7415 54.3882 56.9886 54.3902 57.4509C54.3941 58.4045 54.399 59.3586 54.3887 60.3122C54.3775 61.3645 53.6048 62.1461 52.5577 62.1466C44.9859 62.151 37.4146 62.1505 29.8428 62.1466C28.764 62.1461 28.003 61.3552 28.002 60.2458C27.9986 56.1549 28.0006 52.064 28.0006 47.9726C28.0006 41.3467 28.0006 34.7208 28.0006 28.0948C28.0006 26.7099 28.6979 26.0034 30.0677 26.0034C36.2898 26.0034 42.5119 26.0074 48.7344 26C49.0855 26 49.3482 26.0992 49.5966 26.3513C51.0725 27.8502 52.5577 29.3402 54.0488 30.8244C54.2875 31.0617 54.3975 31.3127 54.3965 31.6542C54.3882 35.72 54.3911 39.7864 54.3907 43.8522C54.3907 43.9652 54.3965 44.0802 54.377 44.1902C54.3227 44.4968 54.0664 44.6987 53.7583 44.6741C53.4473 44.6491 53.2478 44.4821 53.2003 44.1652C53.1817 44.0424 53.191 43.9146 53.191 43.7893C53.191 40.0369 53.191 36.285 53.191 32.5326V32.03L53.1901 32.0305ZM49.5932 28.1042V29.6581C49.5932 30.7708 49.6479 30.8264 50.7502 30.8264C51.2525 30.8264 51.7552 30.8264 52.3127 30.8264C51.3855 29.8983 50.5189 29.0312 49.5937 28.1047L49.5932 28.1042Z" fill="white"/>
<path d="M61.3287 40.4625C62.3493 40.5112 63.1934 40.9754 63.6864 41.9609C64.1837 42.9563 64.08 43.929 63.4365 44.8354C63.3142 45.0079 63.1606 45.1597 63.011 45.31C59.1598 49.1793 55.3101 53.0502 51.4476 56.9087C51.2295 57.1268 50.9268 57.3017 50.6314 57.3921C49.3912 57.7734 48.1373 58.1099 46.8917 58.4744C46.6169 58.555 46.3303 58.5815 46.1792 58.3344C46.0653 58.1487 46.0129 57.8559 46.0682 57.6466C46.4164 56.327 46.7964 55.0158 47.1832 53.707C47.2404 53.5125 47.3549 53.312 47.4972 53.1686C51.4232 49.2147 55.357 45.2687 59.2884 41.3198C59.8357 40.7701 60.491 40.4822 61.3292 40.4625H61.3287ZM59.4522 44.1132C59.2557 43.8932 59.0674 43.6819 58.9104 43.5065C55.5091 46.9175 52.1103 50.3265 48.7408 53.706C48.9124 53.9094 49.1007 54.132 49.269 54.3314C52.6947 50.8939 56.0862 47.4908 59.4522 44.1137V44.1132ZM50.7419 55.765C54.1432 52.3521 57.5474 48.9362 60.9067 45.565C60.7565 45.3886 60.5731 45.1729 60.4342 45.0093C57.0159 48.4405 53.6185 51.8505 50.2495 55.232C50.4153 55.4113 50.607 55.6191 50.7419 55.765ZM61.9185 44.6777C62.4887 44.2051 62.9567 43.6637 62.7469 42.83C62.589 42.2026 62.1679 41.8057 61.5375 41.6858C60.7409 41.5345 60.2279 41.9973 59.7897 42.5475C60.5007 43.2589 61.1967 43.9551 61.919 44.6772L61.9185 44.6777ZM48.0684 54.947C47.8786 55.6152 47.6835 56.3015 47.4693 57.0566C48.2175 56.8419 48.9002 56.6454 49.5717 56.4528C49.0636 55.9438 48.5755 55.455 48.0684 54.947Z" fill="white"/>
<path d="M41.1565 39.2596C38.21 39.2596 35.264 39.2601 32.3175 39.2586C31.8603 39.2586 31.627 39.0808 31.5957 38.7241C31.5654 38.3797 31.7718 38.1125 32.1175 38.0643C32.2403 38.0471 32.3669 38.0555 32.4916 38.0555C38.297 38.0555 44.102 38.0555 49.9074 38.0555C50.0198 38.0555 50.1328 38.0496 50.2443 38.0599C50.5861 38.0914 50.7935 38.3164 50.7964 38.6509C50.7994 38.9865 50.5949 39.2203 50.2575 39.2547C50.1338 39.2675 50.0081 39.2601 49.8834 39.2601C46.9746 39.2601 44.0658 39.2601 41.1569 39.2601L41.1565 39.2596Z" fill="white"/>
<path d="M41.2325 45.2844C44.1295 45.2844 47.0261 45.2844 49.9232 45.2844C50.0357 45.2844 50.1491 45.2755 50.2602 45.2888C50.5932 45.3281 50.7761 45.5207 50.7942 45.8572C50.8123 46.1928 50.6093 46.4369 50.2763 46.4792C50.1531 46.4949 50.0269 46.4885 49.9022 46.4885C44.0958 46.4885 38.2894 46.4885 32.483 46.4885C32.3583 46.4885 32.2322 46.4954 32.1089 46.4792C31.7764 46.4355 31.5754 46.1913 31.594 45.8548C31.6125 45.5172 31.7974 45.3266 32.13 45.2888C32.241 45.276 32.3544 45.2849 32.4669 45.2849C35.3889 45.2849 38.3104 45.2849 41.2325 45.2849V45.2844Z" fill="white"/>
<path d="M43.628 41.67C45.8008 41.67 47.9736 41.668 50.1465 41.6715C50.6805 41.6724 50.9671 42.0444 50.7959 42.4953C50.6937 42.7646 50.4883 42.8736 50.2105 42.8722C49.7983 42.8702 49.3865 42.8722 48.9742 42.8722C45.1157 42.8722 41.2572 42.8722 37.3981 42.8722C37.2984 42.8722 37.1981 42.8741 37.0984 42.8717C36.6749 42.8614 36.421 42.6447 36.4122 42.288C36.4034 41.923 36.6753 41.6729 37.1091 41.672C39.2819 41.6685 41.4547 41.6705 43.6275 41.6705L43.628 41.67Z" fill="white"/>
<path d="M38.8335 34.4409C40.9701 34.4409 43.1067 34.4331 45.2433 34.4522C45.4644 34.4542 45.7529 34.5549 45.8898 34.7146C46.1847 35.0585 45.9251 35.5807 45.4702 35.6387C45.3715 35.651 45.2707 35.6456 45.1705 35.6456C40.9222 35.6456 36.6739 35.6456 32.4251 35.6456C32.3253 35.6456 32.2241 35.6524 32.1253 35.6392C31.7952 35.5945 31.6059 35.4048 31.5952 35.0658C31.5844 34.7264 31.7654 34.524 32.0867 34.4552C32.2065 34.4291 32.3356 34.4419 32.4603 34.4414C34.5847 34.4409 36.7086 34.4414 38.833 34.4414L38.8335 34.4409Z" fill="white"/>
<path d="M38.2343 52.5135C40.1836 52.5135 42.1324 52.5056 44.0813 52.5248C44.2896 52.5267 44.5625 52.6323 44.6906 52.7866C44.9806 53.1354 44.7234 53.6532 44.2681 53.7107C44.1693 53.723 44.0685 53.7176 43.9688 53.7176C40.1205 53.7176 36.2723 53.7176 32.424 53.7176C32.3242 53.7176 32.223 53.7245 32.1247 53.7112C31.7946 53.6655 31.6063 53.4759 31.596 53.1369C31.5858 52.7974 31.7677 52.597 32.0885 52.5267C32.1966 52.5031 32.3125 52.5139 32.4245 52.5139C34.3611 52.5135 36.2977 52.5139 38.2343 52.5139V52.5135Z" fill="white"/>
<path d="M37.5636 50.1033C35.8162 50.1033 34.0694 50.1048 32.322 50.1023C31.8335 50.1018 31.589 49.895 31.5948 49.4956C31.5997 49.1581 31.7753 48.9611 32.1054 48.9051C32.166 48.8948 32.2301 48.8992 32.2922 48.8992C35.8241 48.8992 39.3554 48.9007 42.8873 48.8967C43.2394 48.8967 43.5069 49.0004 43.5871 49.3733C43.6781 49.7963 43.4008 50.0999 42.9171 50.1018C41.5194 50.1072 40.1217 50.1038 38.7241 50.1038C38.3372 50.1038 37.9504 50.1038 37.5636 50.1038V50.1033Z" fill="white"/>
<path d="M40.8943 30.8262C42.3668 30.8262 43.8393 30.8243 45.3118 30.8277C45.7646 30.8287 46.0023 31.0473 45.9974 31.4374C45.993 31.7705 45.7851 32.0215 45.4423 32.0225C42.4098 32.0309 39.3777 32.0309 36.3452 32.0225C35.9887 32.0215 35.7784 31.7508 35.7916 31.3991C35.8048 31.0414 36.0322 30.8302 36.4391 30.8287C37.9243 30.8238 39.409 30.8267 40.8943 30.8267V30.8262Z" fill="white"/>
<path d="M39.9842 57.3323C39.0222 57.3323 38.0598 57.3348 37.0978 57.3313C36.6337 57.3299 36.3951 57.1255 36.3907 56.7423C36.3863 56.3586 36.6323 56.1306 37.0817 56.1297C39.031 56.1257 40.9798 56.1257 42.9292 56.1297C43.358 56.1306 43.5923 56.3488 43.5967 56.7217C43.6011 57.1098 43.3615 57.3289 42.9081 57.3308C41.9335 57.3353 40.9588 57.3323 39.9842 57.3323Z" fill="white"/>
<path d="M49.0371 34.4411C49.4102 34.4411 49.7838 34.4352 50.157 34.4426C50.5761 34.451 50.8045 34.6765 50.7971 35.0567C50.7898 35.4149 50.5634 35.6374 50.1653 35.6418C49.3814 35.6502 48.5969 35.6507 47.813 35.6418C47.4164 35.6374 47.1904 35.4099 47.1885 35.0498C47.1865 34.6946 47.4174 34.4559 47.8047 34.4441C48.215 34.4318 48.6258 34.4411 49.0366 34.4411H49.0371Z" fill="white"/>
<path d="M33.4105 42.8712C33.0232 42.8712 32.6359 42.8791 32.2491 42.8687C31.8617 42.8584 31.6148 42.6162 31.6162 42.2713C31.6182 41.9319 31.872 41.6784 32.2535 41.6734C33.0403 41.6636 33.8272 41.6631 34.6136 41.6744C34.998 41.6798 35.2435 41.9338 35.2415 42.2792C35.2395 42.6329 35.0004 42.8633 34.6087 42.8702C34.2091 42.8776 33.8096 42.8717 33.4096 42.8712H33.4105Z" fill="white"/>
<path d="M46.6103 48.8996C46.9962 48.8996 47.3825 48.8932 47.7684 48.9015C48.1635 48.9104 48.3919 49.1314 48.3963 49.4906C48.4007 49.8541 48.1782 50.0939 47.7874 50.0993C46.9908 50.1101 46.1932 50.1101 45.3965 50.0993C45.0063 50.0939 44.7837 49.8546 44.7882 49.4911C44.7926 49.129 45.017 48.9099 45.4146 48.9015C45.8132 48.8932 46.2117 48.8996 46.6103 48.8996Z" fill="white"/>
<path d="M33.4341 56.1287C33.8072 56.1287 34.1809 56.1228 34.554 56.1302C34.9746 56.1385 35.2049 56.3611 35.2005 56.7379C35.1966 57.098 34.9712 57.3245 34.5755 57.3289C33.7916 57.3378 33.0077 57.3373 32.2242 57.3289C31.8271 57.325 31.5982 57.1005 31.5929 56.7443C31.5875 56.3748 31.8257 56.1405 32.2399 56.1302C32.6379 56.1204 33.036 56.1282 33.4341 56.1282V56.1287Z" fill="white"/>
<defs>
<radialGradient id="paint0_radial_0_1" cx="0" cy="0" r="1" gradientUnits="userSpaceOnUse" gradientTransform="translate(43 43) rotate(90) scale(43)">
<stop offset="0.59" stop-color="#BBAAFF"/>
<stop offset="1" stop-color="#97A0EF"/>
</radialGradient>
</defs>
</svg>
